<svg width="26" height="14" viewBox="0 0 26 14" fill="none" xmlns="http://www.w3.org/2000/svg">
<path fill-rule="evenodd" clip-rule="evenodd" d="M12.3362 1.14725C12.4233 1.05995 12.5268 0.990677 12.6406 0.943415C12.7545 0.896153 12.8766 0.871826 13 0.871826C13.1233 0.871826 13.2454 0.896153 13.3593 0.943415C13.4732 0.990677 13.5766 1.05995 13.6637 1.14725L24.9137 12.3973C25.0897 12.5733 25.1886 12.812 25.1886 13.061C25.1886 13.31 25.0897 13.5487 24.9137 13.7248C24.7377 13.9008 24.4989 13.9997 24.25 13.9997C24.001 13.9997 23.7622 13.9008 23.5862 13.7248L13 3.13663L2.41371 13.7248C2.23768 13.9008 1.99892 13.9997 1.74996 13.9997C1.50101 13.9997 1.26225 13.9008 1.08621 13.7248C0.910176 13.5487 0.811279 13.31 0.811279 13.061C0.811279 12.812 0.910176 12.5733 1.08621 12.3973L12.3362 1.14725Z" fill="black"/>
</svg>
