<svg width="136" height="35" viewBox="0 0 136 35" fill="none" xmlns="http://www.w3.org/2000/svg">
<path d="M26.4242 7.06055L17.3115 34.6726H41.2313V7.06055H26.4242Z" fill="url(#paint0_linear_601_30)"/>
<path d="M27.5632 10.5916H32.1188L37.5864 20.7148L32.1188 31.0858H27.5632L32.574 20.7148L27.5632 10.5916Z" fill="white"/>
<path d="M14.8071 27.5133L23.9181 0H0V27.5133H14.8071Z" fill="url(#paint1_linear_601_30)"/>
<path d="M13.8952 24.0254H9.33967L3.87207 13.9021L9.33967 3.53125H13.8952L8.88446 13.9021L13.8952 24.0254Z" fill="white"/>
<path d="M44.8289 12.5672C45.7267 12.425 46.6332 12.3578 47.5405 12.3662C49.1838 12.3662 50.2014 12.6569 51.0475 13.292C51.9874 13.999 52.5921 15.1599 52.5921 16.8698C52.5921 18.7663 51.9349 19.999 51.1019 20.7078C50.165 21.5008 48.7681 21.8543 47.1001 21.8543C46.3406 21.865 45.5814 21.814 44.8289 21.7018V12.5672ZM47.1099 19.8896C47.2706 19.913 47.4327 19.922 47.5947 19.9165C49.0736 19.9362 50.1684 19.0498 50.1684 16.9488C50.1684 15.1294 49.1824 14.2735 47.8051 14.2735C47.572 14.2664 47.3389 14.2869 47.1099 14.3345V19.8896Z" fill="white"/>
<path d="M60.9344 17.9964H57.869V19.7118H61.2991V21.75H55.5847V12.4377H61.1185V14.4761H57.869V15.9796H60.9344V17.9964Z" fill="white"/>
<path d="M66.4854 21.75L63.7756 12.4377H66.2834L67.1888 16.1035C67.4569 17.1459 67.692 18.1651 67.8974 19.3601H67.9217C68.1272 18.2243 68.372 17.1459 68.6221 16.1447L69.5488 12.4414H71.9808L69.1875 21.7536L66.4854 21.75Z" fill="white"/>
<path d="M80.0337 17.9964H76.964V19.7118H80.3907V21.75H74.6797V12.4377H80.2129V14.4761H76.964V15.9796H80.0337V17.9964Z" fill="white"/>
<path d="M83.4355 12.4377H85.7199V19.6597H89.0067V21.75H83.4355V12.4377Z" fill="white"/>
<path d="M99.4262 17.0007C99.4262 19.9953 97.783 21.9026 95.1533 21.9026C92.5237 21.9026 91.0447 19.7369 91.0447 17.1496C91.0447 14.4384 92.6704 12.2871 95.283 12.2871C98.0326 12.2871 99.4262 14.5084 99.4262 17.0007ZM93.4674 17.1047C93.4674 18.8559 94.1659 19.9271 95.2568 19.9271C96.3482 19.9271 97.0102 18.759 97.0102 17.0814C97.0102 15.4773 96.353 14.2626 95.2437 14.2626C94.1673 14.2626 93.4689 15.3858 93.4689 17.1047H93.4674Z" fill="white"/>
<path d="M102.419 12.5671C103.35 12.4181 104.29 12.3509 105.23 12.3661C106.458 12.3661 107.338 12.6083 107.936 13.1089C108.246 13.3744 108.495 13.7152 108.664 14.1042C108.833 14.4932 108.916 14.9197 108.907 15.35C108.907 16.2938 108.618 17.1191 108.077 17.6467C107.389 18.3213 106.387 18.6209 105.237 18.6209C105.015 18.6209 104.82 18.6012 104.68 18.5904V21.7502H102.419V12.5671ZM104.685 16.6759C104.858 16.7052 105.033 16.7172 105.208 16.7118C106.095 16.7118 106.652 16.2094 106.652 15.4092C106.652 14.7148 106.232 14.2447 105.362 14.2447C105.135 14.2401 104.908 14.2617 104.685 14.3093V16.6759Z" fill="white"/>
<path d="M117.157 17.9964H114.091V19.7118H117.517V21.75H111.807V12.4377H117.339V14.4761H114.091V15.9796H117.157V17.9964Z" fill="white"/>
<path d="M120.563 12.5671C121.476 12.4255 122.398 12.3583 123.319 12.3661C124.634 12.3661 125.561 12.5635 126.204 13.0838C126.751 13.5395 127.045 14.2034 127.045 15.1149C127.045 16.2758 126.248 17.1012 125.584 17.3667V17.4152C126.151 17.6807 126.457 18.2746 126.675 19.0839C126.932 20.0294 127.212 21.3841 127.377 21.743H125.043C124.914 21.4738 124.692 20.7453 124.445 19.5898C124.213 18.4738 123.901 18.2423 123.196 18.2423H122.824V21.734H120.563V12.5671ZM122.824 16.4624H123.419C124.281 16.4624 124.777 16.0031 124.777 15.3051C124.777 14.6071 124.356 14.2106 123.597 14.2034C123.338 14.1918 123.079 14.2104 122.824 14.2591V16.4624Z" fill="white"/>
<path d="M130.294 19.2706C130.984 19.6371 131.739 19.8336 132.506 19.8466C133.287 19.8466 133.673 19.5505 133.673 19.0805C133.673 18.6103 133.29 18.3735 132.326 18.0128C130.889 17.4566 129.931 16.59 129.931 15.2048C129.931 13.5577 131.203 12.2945 133.357 12.2945C134.147 12.2738 134.93 12.4359 135.658 12.77L135.18 14.7634C134.598 14.4742 133.966 14.3237 133.326 14.322C132.631 14.322 132.248 14.6001 132.248 15.0092C132.248 15.4811 132.7 15.6713 133.776 16.1109C135.313 16.7245 136 17.6235 136 18.9189C136 20.5338 134.85 21.8956 132.365 21.8956C131.336 21.8956 130.34 21.6014 129.857 21.3287L130.294 19.2706Z" fill="white"/>
<defs>
<linearGradient id="paint0_linear_601_30" x1="-47653.3" y1="37644.7" x2="-47653.3" y2="33274.9" gradientUnits="userSpaceOnUse">
<stop stop-color="#ACC0FE"/>
<stop offset="1" stop-color="#4B086D"/>
</linearGradient>
<linearGradient id="paint1_linear_601_30" x1="-50186.9" y1="38601" x2="-50186.9" y2="34247" gradientUnits="userSpaceOnUse">
<stop stop-color="#ACC0FE"/>
<stop offset="1" stop-color="#4B086D"/>
</linearGradient>
</defs>
</svg>
