<svg width="23" height="24" viewBox="0 0 23 24" fill="none" xmlns="http://www.w3.org/2000/svg">
<path d="M20.0059 2.81588C19.442 2.30186 17.1594 0.66283 12.0704 0.640916C12.0704 0.640916 6.07108 0.285025 3.14911 2.939C1.5238 4.54711 0.950974 6.90673 0.888788 9.8287C0.826601 12.7508 0.751117 18.2256 6.08438 19.7108H6.08878L6.08438 21.9781C6.08438 21.9781 6.04889 22.8964 6.66166 23.081C7.39885 23.3095 7.83401 22.6109 8.54006 21.8594C8.92642 21.4464 9.45926 20.8401 9.86338 20.3786C13.5136 20.6819 16.3158 19.9876 16.6354 19.8866C17.3726 19.6493 21.5424 19.122 22.2173 13.6471C22.9189 7.99641 21.8799 4.4285 20.0059 2.81588ZM20.6232 13.2341C20.0503 17.8037 16.6709 18.0937 16.0493 18.2915C15.7828 18.3749 13.3182 18.9814 10.2231 18.7836C10.2231 18.7836 7.91394 21.5386 7.19454 22.2549C6.95919 22.4877 6.70165 22.4658 6.7061 22.0044C6.7061 21.7013 6.72384 18.2388 6.72384 18.2388C6.7194 18.2388 6.7194 18.2388 6.72384 18.2388C2.20321 16.9996 2.46965 12.3376 2.51849 9.89898C2.56733 7.46038 3.03363 5.4611 4.41024 4.11658C6.88371 1.89759 11.9772 2.22717 11.9772 2.22717C16.2802 2.24473 18.3407 3.52772 18.8203 3.95835C20.4055 5.30292 21.2138 8.51934 20.6232 13.2341ZM14.4506 9.68372C14.4683 10.0616 13.8955 10.088 13.8778 9.71003C13.8289 8.74336 13.3715 8.27326 12.4301 8.22053C12.0482 8.19852 12.0837 7.63172 12.4611 7.65373C13.7002 7.71961 14.3885 8.42264 14.4506 9.68372ZM15.3521 10.1802C15.3964 8.31714 14.2197 6.85835 11.986 6.69582C11.6086 6.66945 11.6485 6.1026 12.0261 6.12896C14.6017 6.31356 15.9738 8.06675 15.9249 10.1934C15.9205 10.5712 15.3432 10.5537 15.3521 10.1802ZM17.4392 10.769C17.4436 11.1469 16.8663 11.1513 16.8663 10.7734C16.8397 7.19233 14.4285 5.24139 11.502 5.21942C11.1245 5.21502 11.1245 4.65262 11.502 4.65262C14.7748 4.67458 17.4081 6.91108 17.4392 10.769ZM16.9374 15.0795V15.0883C16.4578 15.9232 15.5608 16.846 14.6371 16.5515L14.6282 16.5383C13.6912 16.2791 11.4843 15.1543 10.0899 14.0557C9.37048 13.4933 8.71322 12.8298 8.20698 12.1927C7.74963 11.6258 7.28782 10.9535 6.83932 10.1451C5.89347 8.45336 5.68477 7.6976 5.68477 7.6976C5.38723 6.78366 6.31533 5.89604 7.16345 5.42153H7.1724C7.58091 5.21057 7.97168 5.28091 8.23367 5.59283C8.23367 5.59283 8.78435 6.24308 9.01966 6.56395C9.24171 6.86271 9.53924 7.34161 9.69466 7.60966C9.96555 8.08857 9.79674 8.57633 9.53035 8.77839L8.99746 9.20026C8.72662 9.41553 8.76211 9.81539 8.76211 9.81539C8.76211 9.81539 9.55254 12.7726 12.5056 13.5196C12.5056 13.5196 12.9098 13.5547 13.1273 13.2867L13.5536 12.7594C13.7578 12.4958 14.2508 12.3288 14.7348 12.5969C15.3876 12.9615 16.218 13.5284 16.7687 14.0425C17.0795 14.2929 17.1505 14.6753 16.9374 15.0795Z" fill="white"/>
</svg>
