<svg width="33" height="32" viewBox="0 0 33 32" fill="none" xmlns="http://www.w3.org/2000/svg">
<path d="M0.378662 32L2.63431 23.4124C1.37115 21.0621 0.649339 18.4407 0.649339 15.8192C0.649339 7.05085 7.77717 0 16.4388 0C25.1005 0 32.2283 7.05085 32.2283 15.8192C32.2283 24.4972 25.1907 31.6384 16.4388 31.6384C13.8223 31.6384 11.296 31.0056 8.95011 29.7401L0.378662 32ZM9.40124 26.4859L9.94259 26.8475C11.9276 28.0226 14.1832 28.6554 16.4388 28.6554C23.4764 28.6554 29.2509 22.8701 29.2509 15.8192C29.2509 8.76836 23.4764 2.98305 16.4388 2.98305C9.40123 2.98305 3.62679 8.76836 3.62679 15.8192C3.62679 18.1695 4.25837 20.4294 5.52153 22.4181L5.88243 22.9605L4.61927 27.7514L9.40124 26.4859Z" fill="white"/>
<path fill-rule="evenodd" clip-rule="evenodd" d="M22.3033 17.9895C21.6717 17.6279 20.7694 17.1759 20.0476 17.4471C19.4161 17.7183 19.0552 18.6222 18.6943 19.0742C18.5138 19.3454 18.2431 19.3454 17.9724 19.255C15.807 18.3511 14.0927 16.9047 12.8296 14.916C12.6491 14.6448 12.6491 14.3737 12.9198 14.1025C13.2807 13.6505 13.7318 13.1985 13.8221 12.5657C13.9123 12.0234 13.6416 11.3002 13.3709 10.7578C13.1003 10.1251 12.7394 9.13072 12.0176 8.76913C11.386 8.40755 10.5739 8.58834 10.0326 9.04032C9.13033 9.76348 8.6792 11.029 8.6792 12.2042C8.6792 12.5657 8.76943 12.8369 8.76943 13.1985C8.94988 14.0121 9.31078 14.7352 9.76191 15.368C10.0326 15.9104 10.3935 16.3624 10.7544 16.9047C11.9273 18.5318 13.3709 19.8878 15.0852 20.9725C15.8973 21.5149 16.8897 21.9669 17.792 22.2381C18.8747 22.5996 19.777 22.9612 20.9499 22.7804C22.1228 22.5092 23.2958 21.7861 23.8371 20.6109C24.0176 20.2494 24.0176 19.8878 23.9273 19.5262C23.9273 18.803 22.9349 18.3511 22.3033 17.9895Z" fill="white"/>
</svg>
